<?xml version="1.0" encoding="utf-8"?>
<!-- Generator: Adobe Illustrator 22.1.0, SVG Export Plug-In . SVG Version: 6.00 Build 0)  -->
<svg version="1.1" id="Layer_1" xmlns="http://www.w3.org/2000/svg" xmlns:xlink="http://www.w3.org/1999/xlink" x="0px" y="0px"
	 viewBox="0 0 200.7 195.9" style="enable-background:new 0 0 200.7 195.9;" xml:space="preserve">
<style type="text/css">
	.st0{fill:#302E2F;}
	.st1{opacity:0.5;fill:#FCF795;}
	.st2{fill:#FEFEFE;}
	.st3{fill:#EFEFEF;}
	.st4{fill:#EEEEEE;}
	.st5{fill:#343233;}
</style>
<g>
	<path class="st0" d="M24.5,140.1c-0.1-2.5-0.3-5-0.2-7.5c0.1-3.7,0.3-7.1-3.9-9.3c-2.2-1.1-2.9-3.9-2.9-6.6c0-3-0.1-6,0-9
		c0.1-3.5-1.3-5.9-3.4-9c-3.5-5.2-7.4-9.5-11.7-14C-2,80.2,0.1,64.8,4.8,59.9c9.5-9.8,19.3-19.4,28.9-29c3.1-3.1,7-4.1,11.4-4.1
		c16.6,0.1,33.3-0.1,49.9,0.1c3.6,0,6.3-1,8.8-3.6c5.9-6.1,12-12,17.9-18.1c3.5-3.5,7.5-5.3,12.5-5.2c5.3,0.1,10.7,0.2,16,0
		c5-0.2,9,1.7,12.5,5.2c10.8,10.8,21.6,21.7,32.5,32.5c3.5,3.5,5.2,7.6,5.1,12.5c0,2.7-0.3,5.4,0,8c1.1,9.5-1,17.8-8.8,24.1
		c-0.6,2.4-2.1,4.1-3.8,5.8c-5.1,5.1-10.1,10.1-15.2,15.2c-2.8,2.7-4.3,5.9-4.2,9.8c0.2,6.1-2.4,10.8-6.6,15
		c-16.5,16.4-33,32.9-49.4,49.5c-5.8,5.9-11.9,7.4-19.9,4.6c-16.8-6-33.7-11.5-50.7-16.9c-7.7-2.5-13-6.7-13.3-15.3
		c-0.1-1.8-1-3.1-2.1-4.4C25.1,143.9,23.7,142.4,24.5,140.1z"/>
	<path class="st1" d="M24.5,140.1c1.1,1.4,2,3.2,3.5,4.1c2.3,1.5,2.8,3.3,2.8,5.8c0,7.4,1.9,9.9,9.1,12.3
		c18.4,6.2,36.9,12.3,55.3,18.6c5.8,2,10.2,0.7,14.4-3.5c17.1-17.3,34.3-34.4,51.5-51.5c3.9-3.9,6.1-8.3,5.6-13.8
		c-0.4-3.8,1.1-6.6,3.9-9.2c7.1-6.8,14-13.7,21-20.6c9.8,4.7,11.4,15.8,3.2,24.1c-20,20.1-40,40-60,60c-8.6,8.6-17.3,17.1-25.7,25.8
		c-3.6,3.7-7.3,4.6-12.1,2.9c-24.6-8.3-49.2-16.5-73.8-24.7c-9.7-3.3-12.8-11.9-7.4-20.9C17.9,145.7,21.1,142.8,24.5,140.1z"/>
	<path class="st2" d="M102.5,174.9c-1.9,1.6-3.9,0.5-5.7-0.1c-18.3-6.1-36.6-12.2-54.8-18.3c-4.5-1.5-6.1-4.7-4.9-9.2
		c0.8-2.9,2.7-1.1,3.9-0.7c12,3.9,24,7.9,35.9,11.9c3,1,6,2,9,3c1.5,0.5,3.5,1.7,4.3-0.4c0.8-2.3-1.7-2.4-3.1-2.9
		c-12-4-23.9-8-35.9-12c-5.2-1.7-10.4-3.6-15.6-5.1c-3.8-1.1-5.6-3-5.2-7.1c0.3-2.6,0.1-5.3,0.1-8.7c4.5,1.5,8.7,2.7,12.9,4.1
		c13.6,4.5,27.1,9.1,40.6,13.6c1.1,0.4,2.2,0.8,3.3,1.1c1.1,0.3,2.5,0.6,3-0.8c0.6-1.4-0.6-2.1-1.8-2.5c-0.9-0.3-1.9-0.6-2.8-1
		C66.8,133.6,47.9,127.2,29,121c-4-1.3-5.9-3.2-5.4-7.5c0.3-3,0.3-6,0-9c-0.3-3.5,0.8-3.8,3.9-2.7c18.7,6.4,37.5,12.6,56.3,18.8
		c0.3,0.1,0.6,0.3,0.9,0.3c1.9,0.1,4.5,2.9,5.5-0.2c0.8-2.5-2.5-2.5-4.2-3.1c-13.5-4.6-27.1-9.1-40.6-13.6
		c-7.9-2.6-15.7-5.4-23.6-7.8c-3.4-1-5.1-2.8-4.8-6.4c0.1-0.5,0-1,0-1.5c-0.1-20.2,1-22.3,16.6-35c2.3-1.9,4.5-1.5,7-0.6
		c10.7,3.6,21.4,7.1,32.2,10.7c1.5,0.5,3.5,1.8,4.2-0.5c0.6-2.2-1.8-2.3-3.3-2.8c-11-3.7-22.1-7.3-33.1-11.1c-4-1.4-7.1-0.5-10,2.4
		c-2.8,2.9-5.4,6-8.5,8.4c-6.7,5.3-9.8,11.9-8.6,20.5c0.2,1.2,1,3.5-1,3.7c-2,0.1-4.9-0.6-5.1-3.2c-0.4-6.5-2-13.1,3.9-18.6
		c8.5-7.9,16.7-16.3,24.8-24.7c3-3.1,6.2-4.5,10.6-4.4C68,33.1,89.5,33,111,33c1.2,0,2.3,0,3.5,0c1.3,0,2.6-0.3,2.6-1.6
		c0.1-1.8-1.4-2-2.8-2c-2.1,0-4.3,0-6.8,0c7.2-7.5,14-14.6,21-21.6c1.4-1.4,3.6-1.5,5.6-1.6c20.1-0.6,20.1-0.6,34.3,13.5
		c1.8,1.8,3.4,3.6,5.1,5.4c1.7,3-0.6,4.7-2.2,6.4c-5.5,5.8-11.3,11.4-16.9,17c-14.8,14.9-29.6,29.8-44.6,44.5
		c-3.7,3.6-5.4,7.5-5.4,12.8c0.2,20.2,0.1,40.3,0.1,60.5C104.5,169.4,104.4,172.4,102.5,174.9z"/>
	<path class="st3" d="M102.5,174.9c0-23.6,0.1-47.2-0.1-70.9c0-4.5,1.3-7.9,4.5-11c21-20.8,41.9-41.8,62.8-62.8
		c1.5-1.5,3.5-2.7,3.7-5.1c5.9,5.8,11.9,11.6,17.8,17.5c0.4,0.3,0.7,0.7,1,1.1c2.7,3.7,3,25.4-0.1,28.6c-8.9,9.2-18.1,18-27.3,27.1
		c-1.1-2.3-0.3-4.4-0.6-6.5c-0.1-1.3,0-2.9-1.9-2.9c-1.9,0-1.8,1.6-1.8,2.9c0,6.5-0.1,13,0,19.5c0.1,3.4-1,6.1-3.4,8.5
		c-17.5,17.4-34.9,34.9-52.4,52.3C104.1,173.9,103.3,174.4,102.5,174.9z"/>
	<path class="st5" d="M90.5,61.6c0,1.5-0.2,3,0,4.5c2,11-5.8,16.6-12.6,22.6c-1.9,1.7-4.6,1.7-7.1,0.9c-10.4-3.5-20.8-6.9-31.1-10.4
		c-1.4-0.5-3.3-0.7-2.7-2.7c0.7-2,2.3-1.1,3.8-0.6c9.7,3.3,19.5,6.4,29.2,9.8c3.4,1.2,5.7,0.4,8.5-1.9c6.7-5.4,9.6-11.9,8.5-20.4
		c-0.5-4.1-0.1-8.3-0.1-12.5c0-1.5-0.1-3.4,2-3.3c1.7,0.1,1.6,1.8,1.6,3.2C90.5,54.3,90.5,58,90.5,61.6z"/>
</g>
</svg>
