<?xml version="1.0" encoding="utf-8"?>
<!-- Generator: Adobe Illustrator 22.1.0, SVG Export Plug-In . SVG Version: 6.00 Build 0)  -->
<svg version="1.1" id="Layer_1" xmlns="http://www.w3.org/2000/svg" xmlns:xlink="http://www.w3.org/1999/xlink" x="0px" y="0px"
	 viewBox="0 0 239.5 238.8" style="enable-background:new 0 0 239.5 238.8;" xml:space="preserve">
<style type="text/css">
	.st0{fill:#302E2F;}
	.st1{opacity:0.5;fill:#FCF795;}
	.st2{fill:#FEFEFE;}
	.st3{fill:#EFEFEF;}
	.st4{fill:#EEEEEE;}
	.st5{fill:#343233;}
</style>
<g>
	<path class="st0" d="M34.2,178.2c1-5.9,5.5-9.3,9.3-13.2c1.4-1.4,2.7-2.9,4-4.4c1.3-5.4,5.8-8.3,9.4-11.9c2.6-2.6,4.1-4.9,3.2-9.1
		c-0.8-3.7,1.3-7.8,0.7-11.7c-0.2-1,0.9-2.9-1.5-2.6c-8.7,2.8-17.5,5.2-26,8.5c-10.6,4.1-19.8-0.6-28.5-5c-6.7-3.4-6.2-25.7,0-30.1
		c1.6-1.1,3.6-1.7,5.5-2.4C25.7,91,41.2,85.8,56.7,80.8c3.1-1,4.9-2.3,4.4-5.9c-1.3-8.7,2.2-15.2,8.7-21
		c7.6-6.8,14.5-14.2,21.6-21.5c3.7-3.8,8-5.7,13.3-5.6c8.8,0.2,17.7-0.1,26.5,0.1c4.1,0.1,7.3-1,10.1-4.1
		c5.7-6.1,11.8-11.8,17.6-17.7c3.3-3.4,7.2-5.1,12-5c27.7,0.4,20.1-3.1,39.5,16c6.9,6.8,13.5,13.8,20.5,20.4
		c4.6,4.3,6.6,9.3,6.3,15.6c-0.2,4-0.2,8,0,12c0.3,5.4-1.2,10.2-4.8,14.2c-0.5,2.6-2.2,4.4-4,6.2c-6.2,6.2-12.4,12.5-18.7,18.7
		c-2.9,2.8-4.6,6-4.4,10.1c0.2,5.7-2.2,10.4-6.1,14.3c-16.8,16.9-33.6,33.7-50.5,50.5c-5.4,5.3-11.4,6.8-18.7,4.2
		c-9.1-3.3-18.3-6-27.4-9.2c-3.6-1.3-6.2-0.6-8.9,2.1c-7.9,8.1-16.1,15.9-23.9,24.1c-6.1,6.4-12.9,8.4-21.2,4.9
		c-2.6-1.1-5.4-1.7-8-2.9c-6-2.8-7.6-5.9-6.7-12.5C34.3,185.1,33.5,181.6,34.2,178.2z"/>
	<path class="st1" d="M34.2,178.2c0,3.8,0,7.7,0,11.5c0,4.7,2.1,8,6.5,9.6c4.4,1.6,8.8,3.1,13.2,4.4c4.9,1.4,8.7-0.6,12.1-4
		c9.1-9.2,18.4-18.3,27.5-27.6c2.3-2.4,4.3-2.9,7.4-1.8c10.2,3.6,20.5,6.7,30.7,10.4c5.9,2.1,10.5,1,14.9-3.4
		c17.1-17.3,34.3-34.4,51.6-51.6c3.8-3.7,6-8,5.5-13.3c-0.4-4,1.1-6.9,4-9.7c8.4-8,16.6-16.3,24.9-24.5c9.5,9.2,9.5,19.9,0,29.4
		C216,124.1,199.8,141,182.8,157c-12.4,11.7-24.2,23.7-36.3,35.7c-3.7,3.7-7.8,3.9-12.4,3.2c-0.8-0.1-1.7-0.3-2.4-0.8
		c-10.1-5.9-17.4-3.1-24.9,5.7c-10,11.7-21.8,22-32.6,33.1c-4.6,4.7-9.3,6.4-15.6,3.6c-5.2-2.3-10.9-3.1-14.4-8.8
		c-1.5-2.4-6.6-2.5-10-3.7c-7.8-2.6-9.5-5.3-9.9-13.5c-0.4-8.3,0.1-16,7.6-21.4c1.7-1.2,1.4-3.2,1.5-5.1
		C33.5,182.7,32.8,180.3,34.2,178.2z"/>
	<path class="st1" d="M59.4,125.1c1.4-0.9,1.6-0.1,1.8,1.1c0.5,5.8-1.8,12,2.6,17.3c0.7,0.8-0.5,1.8-1.2,2.4
		c-5,4.9-9.9,9.7-14.9,14.6c-1.1-9,1.9-16.3,9-22C61.2,134.8,61.2,130.2,59.4,125.1z"/>
	<path class="st2" d="M55.1,197.3c-3.8-1.2-7.6-2.3-11.4-3.5c-1.3-0.4-2.4-1.1-3-2.4c-1.9-4.4,0.3-15.1,3.8-18.6
		c18.7-18.7,37.5-37.5,56.2-56.2c0.6-0.6,1.2-1.2,1.8-1.8c2-2.2,5-4.2,3-7.6c-2.1-3.4-5.5-2.4-8.5-1.3C75.2,113,53.3,120,31.7,127.7
		c-8.8,3.1-15.5-1.4-22.9-3.8c-3-1-2.6-18.9,0.1-20.6c1.1-0.7,2.5-0.9,3.8-1.3c30.7-10.3,61.5-20.5,92.2-30.8
		c8.4-2.8,11.6-8.8,9.1-17.3c-0.3-1-0.7-1.9-1.9-1.8c-1.2,0.1-1.6,1-1.6,2.1c0,0.5,0,1,0,1.5C110,65.8,110,65.8,100.3,69
		c-10.8,3.6-21.7,7.2-32.5,10.7c-2-9.3,0-16.4,7.3-22.6C82.5,51,89,43.7,95.7,36.8c2.6-2.7,5.5-3.8,9.3-3.8
		c14.8,0.1,29.7,0.1,44.5,0c1.7,0,4.4,0.8,4.4-1.8c0-2.6-2.7-1.7-4.4-1.9c-1.6-0.1-3.2,0-5.6,0c7.4-7.5,14.2-14.5,21.1-21.4
		c1.3-1.3,3.2-1.8,5.1-1.8c6,0,12,0,18,0c2.5,0,4.6,0.9,6.3,2.6c5.4,5.4,10.7,10.9,16.1,16.4c0.8,3.3-1.8,4.8-3.6,6.6
		c-13.1,13.2-26.3,26.4-39.5,39.6c-33.4,33.4-66.7,66.9-100.3,100.1c-5.5,5.4-8.9,11-7.8,18.8c0.2,1.5,0.1,3-0.3,4.5
		C58.4,196.6,57.6,198.3,55.1,197.3z"/>
	<path class="st3" d="M55.1,197.3c2.7-0.7,2.5-3,2.2-4.8c-1.6-10.3,3.1-17.2,10.3-24.3C114,122.3,160,76.1,206.1,29.9
		c1.5-1.5,2.9-3.2,4.3-4.8c5.9,5.8,11.8,11.6,17.8,17.4c0.4,0.3,0.7,0.7,1,1.1c2.4,3.3,2.9,25.3,0.1,28.2
		c-9,9.2-18.3,18.2-27.6,27.3c-1-2.1-0.4-4.1-0.6-6c-0.2-1.5,0.1-3.4-2.1-3.2c-1.8,0.1-1.6,1.8-1.6,3.1c0,6.5-0.1,13,0,19.5
		c0.1,3.2-0.9,5.8-3.2,8c-17.6,17.5-35.1,35-52.6,52.6c-0.9,0.9-1.7,2.2-3.3,2c-1.9-1.7-2-4-2.1-6.4c0-7.1-0.1-14.2,0-21.3
		c0.1-4.6-1.1-8.1-6-9.6c-1.4-0.4-2.7-1.3-3.3-2.8c0.3-3.1-0.8-3.8-3.3-1.9c-0.9,0.7-1.7,1.6-2.5,2.4
		c-19.7,19.7-39.4,39.4-59.2,59.1C60.3,196.6,58.5,199.4,55.1,197.3z"/>
	<path class="st2" d="M127.1,135c9.6,1.7,11.2,3.6,11.3,13.4c0,8.9,0,17.8,0,26.7c-0.9,0.6-1.9,0.4-2.9,0.1
		c-1.4-0.4-2.9-0.8-4.3-1.3c-10.5-3.5-21-7.1-31.6-10.6c5-7.6,5.4-7.8,13.4-5.1c3.3,1.1,6.6,2.2,9.9,3.3c1.5,0.5,3.5,1.8,4.2-0.6
		c0.6-2.2-1.8-2.3-3.3-2.8c-4.7-1.6-9.4-3.2-14.2-4.8C115.6,147.1,121.4,141.1,127.1,135z"/>
	<path class="st2" d="M103.6,109.8c-3.8,3.4-7.2,6.3-10.4,9.3c-1.1,1.1-2.2,1.2-3.6,0.9c-0.8-0.2-2.1-0.1-2,0.8
		c0.5,7.4-6.8,9.1-10,13.8c-1.2,1.8-3,3.1-4.5,4.6c-2.2,2.1-4.1,1-5.3-1.1c-1.9-3.2,0-15.2,2.6-17.9c1.3-1.3,2.4-2.7,4.3-3.3
		c8-2.6,16-5.3,24.1-7.9C99.7,108.7,100.9,108.2,103.6,109.8z"/>
</g>
</svg>
