<?xml version="1.0" encoding="utf-8"?>
<!-- Generator: Adobe Illustrator 22.1.0, SVG Export Plug-In . SVG Version: 6.00 Build 0)  -->
<svg version="1.1" id="Layer_1" xmlns="http://www.w3.org/2000/svg" xmlns:xlink="http://www.w3.org/1999/xlink" x="0px" y="0px"
	 viewBox="0 0 243.7 210.5" style="enable-background:new 0 0 243.7 210.5;" xml:space="preserve">
<style type="text/css">
	.st0{fill:#302E2F;}
	.st1{opacity:0.5;fill:#FCF795;}
	.st2{fill:#FEFEFE;}
	.st3{fill:#EFEFEF;}
	.st4{fill:#EEEEEE;}
	.st5{fill:#343233;}
</style>
<g>
	<path class="st0" d="M62.5,72.6c-4.5-11.1-2.5-21.1,6-29.6c7.7-7.7,15.4-15.3,22.9-23c3.6-3.7,7.7-5.4,12.9-5.3c15,0.1,30,0,45,0.1
		c3.8,0,6.6-1,9.3-3.8c13.7-14.3,12.2-12.6,29.2-7c15.8,5.2,31.5,10.5,47.3,15.8c6.5,2.2,8.6,4.9,8.4,11.7
		c-0.2,7.8,1.1,15.6-1.1,23.3c-1,3.5-2.9,6.2-5.5,8.7c-6.9,6.7-13.7,13.6-20.5,20.5c-2.6,2.6-4.4,5.5-4.1,9.2
		c0.3,4.4-2.6,7.4-4.3,10.9c-0.6,2.5-2.1,4.4-3.9,6.2c-24.9,24.8-49.7,49.7-74.6,74.5c-7.8,7.8-14,8.8-23.8,3.2
		c-3.4-1.9-5.4-1.5-7.6,1.2c-0.4,0.5,0.1-0.1-0.3,0.4c-10.9,10.7-20.6,11.2-32.4,1.4c-2-1.7-3.3-1.8-5.1,0c-5.2,5.4-11.3,5.5-18,3.2
		c-6.3-2.2-12.9-3.6-16.6-10.1c-0.7-1.3-2.2-1.3-3.5-1.5c-4.5-0.7-8.6-2.4-12.9-3.8c-3.2-1-5.6-2.9-6.9-6
		c-4.5-10.2-2.5-21.1,5.2-28.8c17.5-17.5,35.1-35.1,52.6-52.6c1.5-1.5,2.8-3.2,4.2-4.8c0.9-3.4,3.6-5.3,6.3-7.6
		C67.3,77.6,63.5,76.8,62.5,72.6z"/>
	<path class="st1" d="M2.4,173c6.4,5,13.9,6.9,21.7,7.9c2,0.3,3.2,0.2,3.9,2.5c1.1,3.6,3.7,5.8,7.4,6.7c0.2,0,0.3,0.1,0.5,0.2
		c10.2,4.3,20.2,7.7,27.7-5.6c3.9,10,12.4,9.9,19.7,11.9c2.6,0.7,5.2-0.8,7.3-2.6c1.1-1,2.2-2.1,3.3-3.1c4.1-3.9,6.8-9.7,14.6-3.6
		c6.5,5.2,13.6,2.5,19.8-3.8c26.2-26.8,52.9-53.1,79.4-79.6c0.3-0.4,0.6-0.4,0.9,0c0,2.7-0.2,5.3-0.1,8c0.1,3-1,5.5-3.1,7.6
		c-27.1,27.1-54.2,54.2-81.3,81.3c-4.8,4.8-13.2,4.2-18.7-1.8c-2.6-2.8-3.8-2-5.7,0.2c-1.2,1.4-2.7,2.5-3.8,3.9
		c-5.7,7.2-12.1,9.5-21,5.3c-4.8-2.3-9.1-4.1-8.3-11.7c-3.5,3.4-6,5.9-8.6,8.3c-3.1,2.9-6.5,4.5-10.8,2.9c-4-1.5-8.2-2.8-12.2-4.3
		c-2.8-1.1-4.8-3.2-5.2-6.2c-0.3-2.2-0.8-3-3.4-2.7c-7.1,1-13.4-2.1-19.4-5.3c-2.9-1.5-4.4-4.4-4.3-7.9C2.5,178.6,2.4,175.8,2.4,173
		z"/>
	<path class="st1" d="M208.5,104c-0.3,0-0.6,0-0.9,0c1.4-2.8,3-5.8,2.6-9c-0.7-5.4,1.7-8.9,5.4-12.6c9.1-9,18.6-17.6,26.8-27.4
		c0,2.3-0.1,4.7,0,7c0.1,5.1-1.6,9.2-5.3,12.9C227.5,84.5,217.4,93.6,208.5,104z"/>
	<path class="st1" d="M62.5,72.6c2.8,3.1,6.9,3.7,10.7,5.6c-2.9,3.1-5.3,6.3-8.9,8.5C61.9,82.3,62.4,77.4,62.5,72.6z"/>
	<path class="st2" d="M205.4,70.8l-0.3,0.2l-0.4,0c-1.7,3.9-0.8,8.1-0.7,12.1c0.1,4.5-1.4,7.9-4.6,11
		c-13.3,13.1-26.3,26.5-39.6,39.5c-12.2,11.9-23.3,24.7-35.5,36.6c-2.3,2.3-4,4.8-4,8.3c0,1.7-0.6,3.3-1.8,4.5
		c-4.3,1.6-7.8-0.6-10.6-3.2c-2.2-2.1-0.4-10.6,2.3-13.4c8.9-9,17.9-17.9,26.8-26.8c0.8-0.8,1.6-1.6,2.5-2.5c0.8-0.9,1.6-1.9,0.5-3
		c-1.1-1.1-2.1-0.3-3,0.5c-0.9,0.8-1.8,1.5-2.6,2.2c-1.9,1.3-3.8,3-6,3.5c-7.9,1.8-13.4,7-18.8,12.6c-5.4,5.6-11,11.1-16.6,16.6
		c-4.2,4.1-7.1,8.8-6.7,14.9c0.1,2-0.3,4-1.8,5.5c-4.5,0.6-8.2-2.2-12.2-3.3c-0.6-0.1-1.1-0.8-1.4-1.4c-1.9-3.3,0-15.4,3-18.3
		c12.1-12.1,24.2-24.2,36.4-36.4c0.8-0.8,1.6-1.7,2.4-2.5c0.9-0.9,1.6-2,0.5-3c-1-1-2.1-0.3-3,0.5c-0.8,0.8-1.8,1.5-2.6,2.2
		c-3.2,2.1-6.6,3.7-10.3,5c-6.4,2.2-11,6.8-15.2,11.7c-7.5,8.7-15.8,16.6-23.9,24.7c-3.3,3.2-5.3,6.7-4.9,11.4
		c0.2,2.5-0.3,5-1.9,7.1c-5.9,0.4-10.8-2.8-16.1-4.5c-0.7-0.2-1.2-1.1-1.5-1.9c-1.9-4.4,0.2-14.7,3.7-18.1
		c14.2-14.2,28.5-28.5,42.7-42.7c0.7-0.7,1.4-1.4,2.1-2.1c0.9-1,2.1-2.1,0.8-3.4c-1-1-2.1-0.3-3,0.6c-0.5,0.4-1,0.8-1.6,1.2
		c-3.5,2.5-7.1,4.8-11.4,6c-3.9,1.1-7,3.6-9.9,6.5c-8.1,8.1-16.1,16.3-24.3,24.3c-4.3,4.1-7,8.6-6.6,14.9c0.2,3,0.1,6.9-5.1,5.5
		c-1.3-0.3-2.7-0.5-3.8-1.1c-3.5-1.8-9.5-0.7-10.2-5.7c-1-6.6-1.2-13,4.7-18.8c32.9-32.3,65.4-65.1,98-97.7c0.7-0.7,1.4-1.4,2.1-2.1
		c1-1.1,2.6-2.2,1.2-3.7c-1.6-1.7-2.5,0.6-3.8,1c-4.9,4.3-11.2,5.7-17.1,7.7c-8.2,2.8-8.7,3.5-8.8,12c0,2.9-0.1,5.6-2,8
		c-4.2-0.4-7.9-2.4-11.8-3.6c-0.7-0.2-1.5-0.8-1.9-1.4c-1.7-2.6-0.4-15.3,2-17.7c9-9.1,18.1-18.1,27.2-27.2c2.2-2.2,4.8-2.7,7.7-2.7
		c15,0.1,30-0.1,45,0.1c5.6,0.1,9.8-1.8,13.7-5.7C175,3.6,170.1,4.9,185.5,10c16.7,5.5,33.5,10.6,49.9,17c0.8,2.6-1.1,4-2.5,5.6
		c-6.4,7.4-13.1,14.5-20.3,21.2c-3.6,3.4-5.9,7-5.5,12.2C207.3,67.7,207.1,69.6,205.4,70.8z"/>
	<path class="st3" d="M118.4,183c-1-6.7,1.7-11.4,6.4-16.3c24.9-25.7,50.2-51,75.5-76.2c2.2-2.2,2.8-4.5,3-7.5c0.3-4-1.6-8.3,1.3-12
		c-1.4,6.9-0.6,13.9-0.6,20.9c0,4.6-1.3,8.2-4.7,11.5c-25.7,25.4-51.1,51-76.7,76.5C121.5,181.2,120.6,183.1,118.4,183z"/>
	<path class="st3" d="M205.4,70.8c-1.4-8.8,1.8-15.5,8.6-21.2c8-6.7,14.5-14.9,21.4-22.7c0.4,0.3,1.1,0.4,1.2,0.8
		c1.8,7.2,0.6,14.5,0.7,21.8c0,3.7-3.1,5.7-5.5,8c-6.7,6.7-13.4,13.5-20.1,20.1c-1.1,1.1-1.9,2.7-3.7,3
		C206,77.6,209.8,73.1,205.4,70.8z"/>
	<path class="st3" d="M51.4,187.8c-1.7-10.3,2.2-17.9,10.1-24.7c8.2-7.2,15.4-15.5,22.8-23.6c6.3-6.8,14.4-9.8,23.2-11.5
		c-11.5,11.6-22.9,23.2-34.4,34.8c-2.8,2.9-5.7,5.6-6.3,9.9c-0.3,2-2,3-3.3,4.2C59.4,180.4,56.3,185.2,51.4,187.8z"/>
	<path class="st3" d="M84.4,190c-1.6-10.3,2.2-18.3,10.2-24.9c5.7-4.8,11-10.2,15.9-15.9c6.4-7.5,14.8-10.3,23.8-12.3
		c-8.3,8.4-16.5,16.8-24.8,25.2c-2.6,2.6-5.1,5.2-5.8,9.1c-0.1,0.3,0,0.8-0.2,1C97.3,178.2,92.1,185.4,84.4,190z"/>
	<path class="st3" d="M21.1,174c3,0,3.6-2,3.3-4.4c-1.1-7.7,2.4-13.2,7.9-18.3c6.5-5.9,13-12,18.6-18.7c7.4-8.8,17-12.9,27.5-15.8
		c-14.1,14.2-28.2,28.5-42.3,42.7c-2.7,2.7-5.1,5.4-6,9.4C29.1,173.2,25,175.1,21.1,174z"/>
	<path class="st4" d="M81.4,73.6c0-3.8,0.1-7.7,0-11.5c-0.1-4.8,2-7.8,6.6-9.3c7.1-2.2,14.2-4.7,21.3-7
		C100.2,55.4,91.1,64.8,81.4,73.6z"/>
</g>
</svg>
